<svg version="1.1" id="Layer_1" xmlns="http://www.w3.org/2000/svg" xmlns:xlink="http://www.w3.org/1999/xlink" x="0px" y="0px"
	 width="100%" viewBox="0 0 280 64" enable-background="new 0 0 280 64" xml:space="preserve">
<path fill="#FFFEFF" opacity="1.000000" stroke="none" 
	d="
M204.000000,65.000000 
	C136.000031,65.000000 68.500046,65.000000 1.000054,65.000000 
	C1.000036,43.666698 1.000036,22.333397 1.000018,1.000072 
	C94.333275,1.000048 187.666550,1.000048 280.999878,1.000024 
	C280.999908,22.333260 280.999908,43.666519 280.999939,64.999893 
	C255.500000,65.000000 230.000000,65.000000 204.000000,65.000000 
M43.994007,29.995575 
	C43.994007,29.995575 43.950241,30.025259 43.806427,29.441841 
	C43.174618,29.022598 42.542809,28.603355 41.923965,28.076050 
	C41.923965,28.076050 41.816086,28.090446 41.708733,27.415037 
	C40.406219,25.571972 39.103703,23.728907 37.542881,21.520332 
	C35.434181,24.005966 33.880497,26.140493 32.014145,27.953079 
	C30.103691,29.808489 27.886911,31.348484 25.196875,33.515888 
	C27.671356,34.774143 29.260771,35.582348 31.261368,36.895031 
	C33.198212,39.303108 35.135052,41.711185 36.870743,43.869167 
	C40.729454,40.372227 44.347385,37.093491 48.357128,33.774792 
	C48.435749,33.669750 48.599232,33.494614 48.579540,33.470779 
	C48.424335,33.282879 48.234146,33.123882 47.882393,32.486561 
	C47.605972,32.314598 47.329552,32.142632 46.842457,31.575338 
	C46.613670,31.331852 46.339268,31.258055 45.662159,31.050194 
	C45.662159,31.050194 45.218727,30.898043 44.960075,30.427811 
	C44.635372,30.301153 44.310665,30.174496 43.994007,29.995575 
M167.093155,45.635841 
	C169.762482,45.410061 172.431824,45.184280 175.540283,44.976147 
	C175.540283,44.976147 175.971664,44.892197 176.356354,45.434669 
	C177.570526,44.622639 178.784683,43.810608 180.315598,43.615421 
	C182.544952,45.409618 184.774307,47.203815 187.752396,48.998024 
	C188.501236,48.997532 189.250076,48.997036 190.430847,49.527313 
	C194.858597,49.681385 199.295532,50.042713 203.707794,49.847290 
	C204.845001,49.796917 205.904694,47.996014 207.802933,46.978306 
	C208.578293,46.398617 209.353638,45.818928 210.570847,45.155983 
	C210.570847,45.155983 211.016953,45.212353 211.019699,46.114517 
	C212.810043,50.195141 219.564590,50.515755 223.272186,47.470318 
	C228.126877,48.404945 232.225861,49.530300 236.381546,49.808426 
	C237.800781,49.903404 240.072006,48.152039 240.637680,46.723167 
	C241.102509,45.549072 239.618835,43.603584 239.081833,41.252380 
	C238.648941,38.229771 238.216049,35.207157 237.783173,32.184547 
	C237.527817,32.233433 237.272461,32.282314 237.017120,32.331200 
	C236.932220,30.520718 236.847321,28.710236 236.645386,26.380829 
	C236.721466,26.039427 236.797546,25.698027 236.963455,24.440578 
	C236.475998,23.013433 235.913925,20.338486 235.513260,20.362446 
	C232.987473,20.513477 230.497528,21.263700 227.342484,21.954676 
	C226.898575,21.985147 226.454681,22.015621 225.902267,21.358438 
	C222.601624,20.906300 219.300964,20.454159 215.831039,19.228367 
	C211.753647,18.506214 207.687973,17.275122 203.596100,17.180796 
	C197.406982,17.038128 191.199615,17.687304 184.698898,17.402035 
	C180.929993,15.739898 178.900543,17.317745 177.150146,20.997715 
	C171.951965,21.786867 166.514679,15.995099 161.799057,21.709620 
	C155.523849,16.304165 149.805359,20.882313 143.193497,22.007538 
	C142.394272,22.093405 141.595032,22.179272 140.828949,22.253201 
	C140.828949,22.253201 140.825836,22.224730 140.926804,21.458452 
	C140.549805,20.365076 140.172806,19.271700 139.642151,17.732679 
	C136.125320,22.383366 132.297974,19.874636 129.009460,19.350721 
	C124.385956,18.614115 124.525246,18.216932 124.596748,22.379215 
	C124.612274,23.282480 123.607368,24.180403 123.540604,25.114258 
	C123.471222,26.084631 123.969345,27.095581 124.152023,28.736839 
	C124.042007,29.156456 123.931992,29.576073 123.154633,30.139084 
	C121.085739,31.798128 119.016846,33.457172 116.223587,35.018562 
	C115.188744,35.332882 114.153893,35.647202 112.344215,35.981762 
	C111.011101,35.490288 109.605919,34.472553 108.363396,34.642685 
	C106.864265,34.847950 105.503113,36.060917 104.082237,36.837704 
	C105.131729,37.556324 106.097534,38.640064 107.251129,38.904484 
	C108.820450,39.264187 110.567123,38.785259 112.177856,39.041866 
	C116.290413,39.697052 120.955711,38.717709 123.549751,43.750935 
	C124.327187,45.259380 126.852982,47.488575 129.872665,44.754356 
	C130.580017,44.898014 131.287384,45.041668 132.192169,45.910587 
	C134.508652,45.828075 136.851639,45.929775 139.132721,45.601387 
	C140.784912,45.363544 142.354965,44.555363 144.404099,44.585083 
	C145.600021,44.786388 146.795944,44.987694 148.084991,45.833317 
	C148.729965,46.428391 149.374939,47.023464 150.019913,47.618542 
	C150.350082,46.809605 150.680267,46.000664 151.751328,45.077938 
	C152.497528,45.115547 153.243744,45.153156 154.017609,45.904346 
	C156.592285,49.989025 157.775574,47.466606 158.971542,44.295433 
	C158.960022,43.913994 158.948517,43.532551 158.951111,42.324226 
	C156.509567,41.159386 154.068039,39.994545 151.524811,38.781189 
	C151.929260,37.801472 152.468781,36.494587 153.735977,35.070992 
	C154.712357,34.992928 155.688721,34.914867 157.437073,34.876030 
	C159.091110,34.367077 160.745163,33.858128 162.381805,33.354530 
	C162.968964,37.444698 163.509720,41.211639 164.788193,45.007355 
	C165.526276,45.014183 166.264374,45.021011 167.093155,45.635841 
M89.833809,35.135315 
	C89.887138,33.089931 89.940460,31.044550 90.736328,28.856632 
	C91.672981,25.843454 92.609642,22.830275 93.546295,19.817095 
	C92.865532,19.349892 92.184769,18.882689 91.504005,18.415485 
	C89.675903,19.956596 87.847794,21.497709 85.908890,23.520021 
	C85.908890,23.520021 85.755760,23.989466 85.292107,24.626703 
	C84.806923,27.955042 84.321747,31.283379 83.767311,35.086773 
	C82.300514,32.341820 81.350410,30.706179 80.543343,29.002766 
	C80.016914,27.891665 79.063904,26.445229 79.395470,25.557379 
	C80.892128,21.549789 77.673119,20.999662 75.452553,20.181681 
	C73.593529,19.496874 71.398811,19.723343 69.301178,19.541838 
	C69.594589,22.350008 69.848007,24.775339 70.097275,27.633131 
	C70.097275,27.633131 69.905479,28.021645 69.418663,28.439716 
	C69.322472,29.062403 69.226288,29.685091 69.132538,30.902626 
	C69.017830,31.280699 68.903114,31.658773 68.381828,32.415504 
	C68.306023,32.774452 68.230225,33.133396 68.148438,34.024437 
	C68.036987,34.360477 67.925537,34.696518 67.397423,35.412220 
	C67.317207,35.775417 67.236992,36.138611 67.192719,37.019043 
	C67.081772,37.344765 66.970825,37.670486 66.125900,38.178288 
	C65.788704,39.875637 65.451508,41.572987 65.180824,43.968166 
	C66.516403,43.980911 67.851990,43.993656 69.821129,43.883049 
	C71.216331,42.316196 72.611534,40.749344 74.665306,39.069901 
	C75.107658,39.106609 75.550011,39.143318 76.103409,39.915981 
	C77.211235,41.558434 78.319061,43.200886 80.135628,44.931114 
	C81.084686,44.944519 82.033752,44.957928 83.360008,45.482594 
	C84.252220,45.297451 85.144432,45.112309 86.884247,45.010918 
	C88.587082,45.072308 90.289917,45.133698 92.088646,45.746811 
	C92.405609,46.035225 92.722565,46.323635 93.039528,46.612053 
	C93.362244,46.142235 93.684952,45.672417 94.799072,45.080151 
	C95.863815,45.119331 96.928551,45.158516 98.134529,45.837433 
	C103.420280,46.787388 105.364334,45.041061 103.995430,39.548080 
	C102.755005,40.630142 101.792915,41.469398 100.222527,42.137211 
	C99.817223,42.022152 99.411919,41.907089 98.910309,41.242653 
	C98.593300,40.956619 98.276291,40.670582 97.959282,40.384544 
	C97.637085,40.852283 97.314888,41.320026 96.167847,41.904446 
	C94.782516,41.865860 93.397186,41.827274 92.004593,40.996845 
	C91.331734,39.331558 90.658875,37.666271 89.833809,35.135315 
M55.914413,42.044765 
	C54.125278,40.398457 52.336147,38.752148 50.547012,37.105839 
	C50.998188,37.627808 51.449368,38.149776 51.900543,38.671745 
	C49.646687,40.009308 47.392826,41.346867 46.248791,42.025803 
	C47.618942,44.073360 48.991356,46.124302 50.264473,48.026844 
	C52.362118,46.089588 54.246723,44.349083 55.914413,42.044765 
M50.545650,29.010008 
	C52.456955,27.332170 54.368263,25.654331 55.726910,24.461647 
	C53.790390,22.256014 52.192493,20.436064 50.473248,18.477900 
	C48.840408,20.040920 47.003006,21.799759 44.425072,24.267460 
	C46.349743,25.851078 48.111092,27.300316 50.545650,29.010008 
M74.588524,45.517128 
	C74.588524,45.517128 74.476990,45.583820 74.588524,45.517128 
z"/>
<path fill="#F8F7FE" opacity="1.000000" stroke="none" 
	d="
M143.999863,22.007338 
	C149.805359,20.882313 155.523849,16.304165 161.799057,21.709620 
	C166.514679,15.995099 171.951965,21.786867 177.755249,21.340073 
	C178.906509,28.787809 179.452682,35.893192 179.998840,42.998573 
	C178.784683,43.810608 177.570526,44.622639 176.334229,44.838699 
	C176.810104,43.811611 177.727173,43.395199 177.742889,42.947163 
	C177.959869,36.763096 178.088043,30.574757 178.100540,24.387188 
	C178.101410,23.956358 177.018295,23.523338 176.439270,23.091335 
	C175.962296,23.800560 175.102814,24.494213 175.073196,25.221647 
	C174.929520,28.751705 175.008331,32.290821 175.008331,35.826725 
	C174.757965,35.865070 174.507614,35.903416 174.257248,35.941761 
	C172.475082,31.948084 170.692902,27.954407 168.903900,23.700239 
	C168.652863,23.224384 168.408661,23.009024 168.165802,22.809021 
	C168.167130,22.824379 168.140396,22.816050 167.886383,22.496155 
	C166.521957,22.176258 165.411575,22.176258 164.050476,22.176258 
	C164.050476,29.930389 164.050476,37.454483 164.050476,44.978577 
	C163.509720,41.211639 162.968964,37.444698 162.381805,33.354530 
	C160.745163,33.858128 159.091110,34.367077 157.059570,34.464905 
	C153.980103,33.014851 151.278152,31.975924 148.334869,30.844198 
	C148.334869,29.354940 148.334869,27.337770 148.334869,25.186331 
	C150.793030,25.186331 152.900696,25.186331 155.006195,25.558193 
	C154.922562,32.222538 159.349121,30.153822 163.762344,30.600348 
	C161.295853,28.274508 159.645325,26.718103 158.300995,24.918922 
	C157.907990,24.106012 157.215958,23.055450 156.508408,23.044884 
	C152.381424,22.983244 148.250809,23.165485 144.085220,22.951414 
	C144.032639,22.427425 144.016251,22.217381 143.999863,22.007338 
z"/>
<path fill="#FEFEFF" opacity="1.000000" stroke="none" 
	d="
M185.000000,18.000000 
	C191.199615,17.687304 197.406982,17.038128 203.596100,17.180796 
	C207.687973,17.275122 211.753647,18.506214 215.752533,19.866859 
	C215.099350,21.268864 214.524658,22.032377 213.876328,23.263100 
	C213.700394,26.818647 213.598083,29.906984 213.187714,33.103901 
	C212.966217,34.890656 213.052780,36.568825 213.164703,38.562035 
	C213.082611,39.498764 212.975174,40.120461 212.575714,40.852699 
	C211.917297,41.159298 211.550888,41.355347 211.018936,41.210682 
	C209.337494,38.936871 207.821594,37.003777 206.239288,34.679832 
	C206.215729,33.499790 206.258591,32.710606 206.523254,31.619736 
	C207.119629,29.108011 207.658096,26.909191 207.810471,24.683939 
	C207.909882,23.231861 207.448700,21.741398 207.238647,20.268127 
	C205.794037,21.002575 204.349411,21.737024 202.742310,22.500366 
	C202.410385,22.672953 202.258377,22.833176 201.696442,23.007000 
	C199.576935,22.999699 197.884766,22.995329 196.111435,22.778271 
	C196.030258,22.565584 195.934265,22.120514 195.914246,21.784637 
	C194.927780,21.569267 193.961304,21.689772 192.555374,21.868828 
	C190.512604,21.943005 188.894913,21.837406 187.312103,22.025536 
	C186.524063,22.119198 185.799973,22.751089 185.046951,23.139505 
	C185.705490,23.822495 186.364029,24.505487 187.155670,25.381802 
	C187.517166,25.805521 187.790833,25.950516 188.187637,26.338707 
	C188.213181,27.111517 188.160843,27.555727 187.727692,27.995340 
	C185.460236,26.703407 183.573608,25.416071 181.982956,24.330688 
	C183.226974,21.720345 184.113495,19.860172 185.000000,18.000000 
z"/>
<path fill="#F5F5FE" opacity="1.000000" stroke="none" 
	d="
M143.596680,22.007439 
	C144.016251,22.217381 144.032639,22.427425 144.109375,23.399971 
	C144.107819,30.108156 144.045914,36.053837 143.588287,41.999332 
	C141.877090,42.003101 140.561646,42.007053 139.364807,41.663609 
	C140.128448,39.061268 140.773483,36.806328 141.508865,34.235603 
	C138.135956,34.235603 135.703979,34.235603 133.271988,34.235603 
	C133.222656,34.568264 133.173309,34.900925 133.123962,35.233585 
	C134.666824,35.677383 136.209671,36.121181 139.181488,36.976013 
	C136.713913,39.045555 135.169479,41.040421 133.171295,41.740913 
	C132.063477,42.129280 129.006165,40.505764 128.881790,39.527790 
	C128.378510,35.570995 127.944717,31.330656 128.890945,27.546446 
	C129.728943,24.195139 133.799606,24.152983 136.094757,26.848970 
	C137.054581,27.976431 138.205475,28.941235 139.269501,29.979988 
	C139.760254,28.407526 140.346527,26.856485 140.705765,25.254534 
	C140.919983,24.299376 140.777786,23.264296 140.795807,22.265141 
	C141.595032,22.179272 142.394272,22.093405 143.596680,22.007439 
z"/>
<path fill="#FEFEFE" opacity="1.000000" stroke="none" 
	d="
M207.000000,46.999264 
	C205.904694,47.996014 204.845001,49.796917 203.707794,49.847290 
	C199.295532,50.042713 194.858597,49.681385 190.354736,48.976021 
	C191.188385,47.346466 192.098145,46.268200 193.378235,45.129715 
	C196.437164,44.871906 196.634460,43.708031 194.966492,41.525063 
	C194.051941,40.472622 193.174072,39.730026 192.227814,38.548096 
	C192.128616,35.731625 192.097794,33.354485 192.284088,30.834984 
	C192.356827,30.135830 192.212448,29.579039 192.093628,28.685421 
	C192.177307,27.903196 192.235428,27.457800 192.669830,27.009827 
	C195.031525,27.337076 197.016922,27.666903 198.843399,28.360762 
	C198.327133,32.108376 195.540314,36.501652 202.223999,37.237350 
	C202.268906,37.803207 202.213669,38.132347 202.162018,38.744965 
	C202.362106,39.337799 202.558624,39.647156 202.879944,40.258186 
	C203.690262,41.658901 204.375763,42.757938 205.047394,44.222153 
	C205.688995,45.391308 206.344498,46.195290 207.000000,46.999264 
z"/>
<path fill="#6D5FE3" opacity="1.000000" stroke="none" 
	d="
M140.812378,22.259171 
	C140.777786,23.264296 140.919983,24.299376 140.705765,25.254534 
	C140.346527,26.856485 139.760254,28.407526 139.269501,29.979988 
	C138.205475,28.941235 137.054581,27.976431 136.094757,26.848970 
	C133.799606,24.152983 129.728943,24.195139 128.890945,27.546446 
	C127.944717,31.330656 128.378510,35.570995 128.881790,39.527790 
	C129.006165,40.505764 132.063477,42.129280 133.171295,41.740913 
	C135.169479,41.040421 136.713913,39.045555 139.181488,36.976013 
	C136.209671,36.121181 134.666824,35.677383 133.123962,35.233585 
	C133.173309,34.900925 133.222656,34.568264 133.271988,34.235603 
	C135.703979,34.235603 138.135956,34.235603 141.508865,34.235603 
	C140.773483,36.806328 140.128448,39.061268 139.078888,41.884590 
	C136.447815,43.363762 134.221283,44.274548 131.994736,45.185326 
	C131.287384,45.041668 130.580017,44.898014 129.280975,44.434769 
	C123.143654,40.761105 123.961098,35.213520 123.821976,29.995687 
	C123.931992,29.576073 124.042007,29.156456 124.427078,28.180630 
	C126.539490,23.718246 129.298004,21.485703 133.928879,22.083162 
	C136.196213,22.375683 138.524918,22.192572 140.825836,22.224731 
	C140.825836,22.224730 140.828949,22.253201 140.812378,22.259171 
z"/>
<path fill="#6D5DF5" opacity="1.000000" stroke="none" 
	d="
M47.053131,31.970671 
	C47.329552,32.142632 47.605972,32.314598 47.925346,32.933762 
	C47.968304,33.380959 47.965313,33.814751 47.965317,33.814751 
	C44.347385,37.093491 40.729454,40.372227 36.870743,43.869167 
	C35.135052,41.711185 33.198212,39.303108 31.001396,36.270031 
	C28.941919,29.710529 35.524593,29.071795 36.735329,25.142908 
	C38.743362,26.307844 40.279724,27.199144 41.816086,28.090446 
	C41.816086,28.090446 41.923965,28.076050 41.978668,28.432199 
	C42.672329,29.200651 43.311283,29.612955 43.950241,30.025259 
	C43.950241,30.025259 43.994007,29.995575 44.121967,30.253851 
	C44.572861,30.640766 44.895794,30.769405 45.218727,30.898043 
	C45.218727,30.898043 45.662159,31.050194 45.965393,31.370474 
	C46.494022,31.885082 46.755524,31.978388 47.053131,31.970671 
z"/>
<path fill="#6755ED" opacity="1.000000" stroke="none" 
	d="
M168.910721,23.960732 
	C170.692902,27.954407 172.475082,31.948084 174.257248,35.941761 
	C174.507614,35.903416 174.757965,35.865070 175.008331,35.826725 
	C175.008331,32.290821 174.929520,28.751705 175.073196,25.221647 
	C175.102814,24.494213 175.962296,23.800560 176.439270,23.091335 
	C177.018295,23.523338 178.101410,23.956358 178.100540,24.387188 
	C178.088043,30.574757 177.959869,36.763096 177.742889,42.947163 
	C177.727173,43.395199 176.810104,43.811611 176.141876,44.567459 
	C175.971664,44.892197 175.540283,44.976147 175.163940,44.652290 
	C172.520523,39.787708 170.253448,35.246986 167.986374,30.706264 
	C167.679489,30.816248 167.372589,30.926231 167.065689,31.036217 
	C167.065689,35.358803 167.065689,39.681389 166.662888,43.915543 
	C165.912994,43.505493 165.269852,43.190292 165.262726,42.861309 
	C165.134949,36.964447 164.962845,31.061916 165.156860,25.172348 
	C165.183777,24.355040 167.099213,23.599945 168.140396,22.816050 
	C168.140396,22.816050 168.167130,22.824379 168.195038,23.056278 
	C168.350891,23.616022 168.580139,23.840208 168.910721,23.960732 
z"/>
<path fill="#F8F7FE" opacity="1.000000" stroke="none" 
	d="
M213.949966,22.795887 
	C214.524658,22.032377 215.099350,21.268864 215.837189,20.253685 
	C219.300964,20.454159 222.601624,20.906300 225.727173,21.970543 
	C224.041809,24.446318 221.648636,26.167067 221.316101,28.221373 
	C221.074173,29.716064 223.360626,31.853462 224.890427,33.316879 
	C225.859741,34.244137 227.618164,34.284351 228.830063,35.033871 
	C230.953094,36.346909 233.774963,37.455914 231.618515,40.950470 
	C229.867493,40.944859 228.457352,40.914177 226.884995,40.571175 
	C225.223312,39.088577 223.723831,37.918301 221.340408,36.058159 
	C221.086578,39.477177 220.955521,41.242466 220.440948,43.005608 
	C217.926147,43.650166 215.794876,44.296871 213.759033,44.637482 
	C213.957962,43.916523 214.061462,43.501659 214.473282,42.912727 
	C215.511200,40.499355 216.240799,38.260056 217.304138,35.841095 
	C219.348816,33.001102 220.497375,30.371441 217.156006,27.569942 
	C217.190430,24.877699 217.295074,22.593605 213.949966,22.795887 
z"/>
<path fill="#6D5EE3" opacity="1.000000" stroke="none" 
	d="
M143.984024,41.999519 
	C144.045914,36.053837 144.107819,30.108156 144.145569,23.713917 
	C148.250809,23.165485 152.381424,22.983244 156.508408,23.044884 
	C157.215958,23.055450 157.907990,24.106012 157.928757,24.870037 
	C156.503006,25.104729 155.755676,25.145529 155.008362,25.186331 
	C152.900696,25.186331 150.793030,25.186331 148.334869,25.186331 
	C148.334869,27.337770 148.334869,29.354940 148.334869,30.844198 
	C151.278152,31.975924 153.980103,33.014851 156.673584,34.445290 
	C155.688721,34.914867 154.712357,34.992928 152.943451,35.065102 
	C150.888229,35.119949 149.625549,35.180679 148.429459,35.238205 
	C147.508560,42.836632 147.614044,42.953915 154.507065,42.982002 
	C155.983917,42.988022 157.460358,43.092171 158.937012,43.151112 
	C158.948517,43.532551 158.960022,43.913994 158.545731,44.627354 
	C156.743256,45.036438 155.366608,45.113602 153.989944,45.190765 
	C153.243744,45.153156 152.497528,45.115547 151.006714,45.066826 
	C149.505341,45.100143 148.748611,45.144573 147.991867,45.189003 
	C146.795944,44.987694 145.600021,44.786388 144.260040,43.963257 
	C144.071991,42.894131 144.028000,42.446823 143.984024,41.999519 
z"/>
<path fill="#F8F7FE" opacity="1.000000" stroke="none" 
	d="
M86.036644,44.927162 
	C85.144432,45.112309 84.252220,45.297451 83.194092,44.845577 
	C82.316360,41.540295 81.604546,38.872025 80.908264,35.820824 
	C80.249725,32.743782 79.613235,30.006804 75.632401,30.809855 
	C75.066971,32.870796 74.519768,34.865276 73.596092,36.883804 
	C72.851372,35.931400 72.483131,34.954945 72.355133,33.761932 
	C72.731575,32.704247 72.867783,31.863119 73.028389,30.686741 
	C73.195656,29.928585 73.338509,29.505676 73.801132,29.070942 
	C74.761284,29.031366 75.401672,29.003614 76.419220,28.814726 
	C76.796371,26.909660 76.796371,25.165731 76.796371,23.604239 
	C72.426239,21.534100 71.317451,24.457050 70.101418,27.200670 
	C69.848007,24.775339 69.594589,22.350008 69.301178,19.541838 
	C71.398811,19.723343 73.593529,19.496874 75.452553,20.181681 
	C77.673119,20.999662 80.892128,21.549789 79.395470,25.557379 
	C79.063904,26.445229 80.016914,27.891665 80.543343,29.002766 
	C81.350410,30.706179 82.300514,32.341820 83.767311,35.086773 
	C84.321747,31.283379 84.806923,27.955042 85.601318,24.771742 
	C85.952568,31.586908 85.994606,38.257034 86.036644,44.927162 
z"/>
<path fill="#6D5CE5" opacity="1.000000" stroke="none" 
	d="
M231.959381,40.925400 
	C233.774963,37.455914 230.953094,36.346909 228.830063,35.033871 
	C227.618164,34.284351 225.859741,34.244137 224.890427,33.316879 
	C223.360626,31.853462 221.074173,29.716064 221.316101,28.221373 
	C221.648636,26.167067 224.041809,24.446318 225.781433,22.314371 
	C226.454681,22.015621 226.898575,21.985147 228.067123,21.956825 
	C231.485718,23.091524 234.179672,24.224072 236.873627,25.356623 
	C236.797546,25.698027 236.721466,26.039427 236.476654,26.885139 
	C234.884048,28.826836 233.812241,29.877131 232.354553,27.086639 
	C231.769028,25.965736 229.409775,25.516993 227.791336,25.326147 
	C227.214355,25.258110 225.701233,27.318121 225.885559,27.613121 
	C226.675079,28.876688 227.841293,29.971588 229.049744,30.892294 
	C231.323105,32.624329 233.720490,34.193569 236.044846,36.239319 
	C235.774567,38.500240 235.525757,40.352333 235.281952,42.238274 
	C235.286926,42.272118 235.282639,42.340405 234.914215,42.232376 
	C233.683655,41.724697 232.821518,41.325050 231.959381,40.925400 
z"/>
<path fill="#FEFEFE" opacity="1.000000" stroke="none" 
	d="
M184.849457,17.701017 
	C184.113495,19.860172 183.226974,21.720345 181.982956,24.330688 
	C183.573608,25.416071 185.460236,26.703407 187.805359,28.325827 
	C188.210358,29.107281 188.156860,29.553652 187.696167,30.006836 
	C183.585831,31.616409 182.193878,38.295605 185.006531,41.266502 
	C185.023071,41.710232 185.032440,41.887615 185.005615,42.435257 
	C185.643753,43.599606 186.318100,44.393696 186.995224,45.568825 
	C186.999893,46.965916 187.001770,47.981968 187.003662,48.998016 
	C184.774307,47.203815 182.544952,45.409618 180.157227,43.306999 
	C179.452682,35.893192 178.906509,28.787809 178.180206,21.340448 
	C178.900543,17.317745 180.929993,15.739898 184.849457,17.701017 
z"/>
<path fill="#6B5CE4" opacity="1.000000" stroke="none" 
	d="
M80.892731,36.203754 
	C81.604546,38.872025 82.316360,41.540295 83.005493,44.589951 
	C82.033752,44.957928 81.084686,44.944519 79.686333,44.516579 
	C78.155479,42.461372 77.073921,40.820702 75.992363,39.180027 
	C75.550011,39.143318 75.107658,39.106609 73.951675,39.061905 
	C69.267807,38.561855 69.650009,41.629536 69.187569,44.006401 
	C67.851990,43.993656 66.516403,43.980911 65.392349,43.360146 
	C66.022537,41.166821 66.441208,39.581516 66.859879,37.996208 
	C66.970825,37.670486 67.081772,37.344765 67.400360,36.577381 
	C67.676704,35.767998 67.745392,35.400280 67.814087,35.032558 
	C67.925537,34.696518 68.036987,34.360477 68.370697,33.575176 
	C68.658104,32.762894 68.723251,32.399868 68.788399,32.036846 
	C68.903114,31.658773 69.017830,31.280699 69.359909,30.382603 
	C69.693344,29.248934 69.799416,28.635290 69.905487,28.021645 
	C69.905479,28.021645 70.097275,27.633131 70.099350,27.416901 
	C71.317451,24.457050 72.426239,21.534100 76.796371,23.604239 
	C76.796371,25.165731 76.796371,26.909660 76.355812,28.481514 
	C75.353462,27.654371 74.791664,26.999300 74.229874,26.344231 
	C73.980377,27.257078 73.730873,28.169924 73.481369,29.082767 
	C73.338509,29.505676 73.195656,29.928585 72.811661,30.923372 
	C72.418648,32.322998 72.266769,33.150742 72.114891,33.978489 
	C72.483131,34.954945 72.851372,35.931400 73.989182,36.947365 
	C76.803413,36.725834 78.848076,36.464794 80.892731,36.203754 
z"/>
<path fill="#F8F7FE" opacity="1.000000" stroke="none" 
	d="
M123.488304,30.067387 
	C123.961098,35.213520 123.143654,40.761105 128.933655,44.335167 
	C126.852982,47.488575 124.327187,45.259380 123.549751,43.750935 
	C120.955711,38.717709 116.290413,39.697052 112.177856,39.041866 
	C110.567123,38.785259 108.820450,39.264187 107.251129,38.904484 
	C106.097534,38.640064 105.131729,37.556324 104.082237,36.837708 
	C105.503113,36.060917 106.864265,34.847950 108.363396,34.642685 
	C109.605919,34.472553 111.011101,35.490288 113.085968,35.984375 
	C114.867798,35.696732 115.907875,35.406471 116.947952,35.116211 
	C119.016846,33.457172 121.085739,31.798128 123.488304,30.067387 
z"/>
<path fill="#7064E1" opacity="1.000000" stroke="none" 
	d="
M86.460449,44.969040 
	C85.994606,38.257034 85.952568,31.586908 85.833145,24.453123 
	C85.755760,23.989466 85.908890,23.520021 86.324936,23.252338 
	C87.651115,22.825096 88.561249,22.665535 89.571472,22.488428 
	C89.722580,24.817982 89.858185,26.908575 89.993790,28.999168 
	C89.940460,31.044550 89.887138,33.089931 89.826706,35.981331 
	C90.437935,38.530796 88.009850,41.580368 92.011856,41.788689 
	C93.397186,41.827274 94.782516,41.865860 96.913864,41.908318 
	C98.108788,41.872135 98.557701,41.832085 99.006615,41.792030 
	C99.411919,41.907089 99.817223,42.022152 100.483925,42.561222 
	C99.827980,43.722721 98.910637,44.460209 97.993294,45.197697 
	C96.928551,45.158516 95.863815,45.119331 94.069405,45.081268 
	C92.890739,45.119953 92.441750,45.157520 91.992752,45.195087 
	C90.289917,45.133698 88.587082,45.072308 86.460449,44.969040 
z"/>
<path fill="#FEFEFE" opacity="1.000000" stroke="none" 
	d="
M213.663589,44.943573 
	C215.794876,44.296871 217.926147,43.650166 220.519867,43.382561 
	C222.324371,43.770443 223.666443,43.779228 225.361694,43.824966 
	C226.806961,44.307880 227.899078,44.753841 229.002960,45.549366 
	C229.599548,46.455708 230.540253,47.590984 230.716019,47.482857 
	C233.534576,45.748928 236.255585,43.856419 238.998795,42.000000 
	C239.618835,43.603584 241.102509,45.549072 240.637680,46.723167 
	C240.072006,48.152039 237.800781,49.903404 236.381546,49.808426 
	C232.225861,49.530300 228.126877,48.404945 223.272186,47.470318 
	C219.564590,50.515755 212.810043,50.195141 211.286819,45.631149 
	C212.257156,45.079712 212.960373,45.011642 213.663589,44.943573 
z"/>
<path fill="#7363E9" opacity="1.000000" stroke="none" 
	d="
M213.759033,44.637482 
	C212.960373,45.011642 212.257156,45.079712 211.285446,45.180065 
	C211.016953,45.212353 210.570847,45.155983 210.036301,45.116852 
	C208.021591,44.670807 206.541443,44.263889 205.061279,43.856972 
	C204.375763,42.757938 203.690262,41.658901 202.889313,39.972672 
	C202.568726,39.077484 202.363586,38.769485 202.158447,38.461487 
	C202.213669,38.132347 202.268906,37.803207 202.290588,36.790859 
	C202.206055,33.402382 202.155075,30.697107 202.184143,27.581669 
	C202.217392,25.784311 202.170578,24.397121 202.123779,23.009930 
	C202.258377,22.833176 202.410385,22.672953 203.066864,22.699175 
	C204.403595,23.744040 205.780472,24.508163 205.992569,25.517136 
	C206.426666,27.582289 206.235291,29.778925 206.301468,31.921419 
	C206.258591,32.710606 206.215729,33.499790 206.166077,35.057880 
	C206.378647,39.012836 206.174789,42.570393 211.184479,41.551395 
	C211.550888,41.355347 211.917297,41.159298 212.632721,41.202885 
	C213.376144,41.990612 213.770554,42.538700 214.164963,43.086792 
	C214.061462,43.501659 213.957962,43.916523 213.759033,44.637482 
z"/>
<path fill="#F8F7FE" opacity="1.000000" stroke="none" 
	d="
M239.040314,41.626190 
	C236.255585,43.856419 233.534576,45.748928 230.716019,47.482857 
	C230.540253,47.590984 229.599548,46.455708 229.380768,45.488205 
	C231.592072,44.165123 233.437363,43.252766 235.282639,42.340408 
	C235.282639,42.340405 235.286926,42.272118 235.586212,42.058365 
	C235.945786,39.839905 236.006042,37.835197 236.066315,35.830490 
	C233.720490,34.193569 231.323105,32.624329 229.049744,30.892294 
	C227.841293,29.971588 226.675079,28.876688 225.885559,27.613121 
	C225.701233,27.318121 227.214355,25.258110 227.791336,25.326147 
	C229.409775,25.516993 231.769028,25.965736 232.354553,27.086639 
	C233.812241,29.877131 234.884048,28.826836 236.535172,27.144602 
	C236.847321,28.710236 236.932220,30.520718 237.017120,32.331200 
	C237.272461,32.282314 237.527817,32.233433 237.783173,32.184547 
	C238.216049,35.207157 238.648941,38.229771 239.040314,41.626190 
z"/>
<path fill="#6D54EB" opacity="1.000000" stroke="none" 
	d="
M56.022873,42.326675 
	C54.246723,44.349083 52.362118,46.089588 50.264473,48.026844 
	C48.991356,46.124302 47.618942,44.073360 46.248791,42.025803 
	C47.392826,41.346867 49.646687,40.009308 51.900543,38.671745 
	C51.449368,38.149776 50.998188,37.627808 50.547012,37.105839 
	C52.336147,38.752148 54.125278,40.398457 56.022873,42.326675 
z"/>
<path fill="#7D6EED" opacity="1.000000" stroke="none" 
	d="
M50.209045,28.879782 
	C48.111092,27.300316 46.349743,25.851078 44.425072,24.267460 
	C47.003006,21.799759 48.840408,20.040920 50.473248,18.477900 
	C52.192493,20.436064 53.790390,22.256014 55.726910,24.461647 
	C54.368263,25.654331 52.456955,27.332170 50.209045,28.879782 
z"/>
<path fill="#F8F7FE" opacity="1.000000" stroke="none" 
	d="
M140.876312,21.841591 
	C138.524918,22.192572 136.196213,22.375683 133.928879,22.083162 
	C129.298004,21.485703 126.539490,23.718246 124.460709,27.856602 
	C123.969345,27.095581 123.471222,26.084631 123.540604,25.114258 
	C123.607368,24.180403 124.612274,23.282480 124.596748,22.379215 
	C124.525246,18.216932 124.385956,18.614115 129.009460,19.350721 
	C132.297974,19.874636 136.125320,22.383366 139.642151,17.732679 
	C140.172806,19.271700 140.549805,20.365076 140.876312,21.841591 
z"/>
<path fill="#F8F7FE" opacity="1.000000" stroke="none" 
	d="
M167.065689,44.003975 
	C167.065689,39.681389 167.065689,35.358803 167.065689,31.036217 
	C167.372589,30.926231 167.679489,30.816248 167.986374,30.706264 
	C170.253448,35.246986 172.520523,39.787708 174.944366,44.643463 
	C172.431824,45.184280 169.762482,45.410061 167.122772,45.079510 
	C167.123474,44.350109 167.094574,44.177044 167.065689,44.003975 
z"/>
<path fill="#8379F5" opacity="1.000000" stroke="none" 
	d="
M41.762409,27.752741 
	C40.279724,27.199144 38.743362,26.307844 36.735329,25.142908 
	C35.524593,29.071795 28.941919,29.710529 30.795803,36.017792 
	C29.260771,35.582348 27.671356,34.774143 25.196875,33.515888 
	C27.886911,31.348484 30.103691,29.808489 32.014145,27.953079 
	C33.880497,26.140493 35.434181,24.005966 37.542881,21.520332 
	C39.103703,23.728907 40.406219,25.571972 41.762409,27.752741 
z"/>
<path fill="#F8F7FE" opacity="1.000000" stroke="none" 
	d="
M158.944061,42.737671 
	C157.460358,43.092171 155.983917,42.988022 154.507065,42.982002 
	C147.614044,42.953915 147.508560,42.836632 148.429459,35.238205 
	C149.625549,35.180679 150.888229,35.119949 152.579605,35.123459 
	C152.468781,36.494587 151.929260,37.801472 151.524811,38.781189 
	C154.068039,39.994545 156.509567,41.159386 158.944061,42.737671 
z"/>
<path fill="#F8F7FE" opacity="1.000000" stroke="none" 
	d="
M90.365059,28.927900 
	C89.858185,26.908575 89.722580,24.817982 89.571472,22.488428 
	C88.561249,22.665535 87.651115,22.825096 86.380333,23.011738 
	C87.847794,21.497709 89.675903,19.956596 91.504005,18.415485 
	C92.184769,18.882689 92.865532,19.349892 93.546295,19.817095 
	C92.609642,22.830275 91.672981,25.843454 90.365059,28.927900 
z"/>
<path fill="#F8F7FE" opacity="1.000000" stroke="none" 
	d="
M143.588287,41.999332 
	C144.028000,42.446823 144.071991,42.894131 144.038818,43.671471 
	C142.354965,44.555363 140.784912,45.363544 139.132721,45.601387 
	C136.851639,45.929775 134.508652,45.828075 132.093445,45.547958 
	C134.221283,44.274548 136.447815,43.363762 138.960266,42.231995 
	C140.561646,42.007053 141.877090,42.003101 143.588287,41.999332 
z"/>
<path fill="#6E54CD" opacity="1.000000" stroke="none" 
	d="
M166.662888,43.915543 
	C167.094574,44.177044 167.123474,44.350109 167.077423,44.775509 
	C166.264374,45.021011 165.526276,45.014183 164.419342,44.992966 
	C164.050476,37.454483 164.050476,29.930389 164.050476,22.176258 
	C165.411575,22.176258 166.521957,22.176258 167.886383,22.496155 
	C167.099213,23.599945 165.183777,24.355040 165.156860,25.172348 
	C164.962845,31.061916 165.134949,36.964447 165.262726,42.861309 
	C165.269852,43.190292 165.912994,43.505493 166.662888,43.915543 
z"/>
<path fill="#F8F7FE" opacity="1.000000" stroke="none" 
	d="
M236.918549,24.898600 
	C234.179672,24.224072 231.485718,23.091524 228.393753,21.887478 
	C230.497528,21.263700 232.987473,20.513477 235.513260,20.362446 
	C235.913925,20.338486 236.475998,23.013433 236.918549,24.898600 
z"/>
<path fill="#F8F7FE" opacity="1.000000" stroke="none" 
	d="
M98.063911,45.517563 
	C98.910637,44.460209 99.827980,43.722721 100.788071,42.646946 
	C101.792915,41.469398 102.755005,40.630142 103.995430,39.548080 
	C105.364334,45.041061 103.420280,46.787388 98.063911,45.517563 
z"/>
<path fill="#F8F7FE" opacity="1.000000" stroke="none" 
	d="
M187.378021,48.998020 
	C187.001770,47.981968 186.999893,46.965916 187.421051,45.501900 
	C189.565369,45.099270 191.286621,45.144604 193.007889,45.189934 
	C192.098145,46.268200 191.188385,47.346466 190.138779,48.710636 
	C189.250076,48.997036 188.501236,48.997532 187.378021,48.998020 
z"/>
<path fill="#F8F7FE" opacity="1.000000" stroke="none" 
	d="
M69.504349,43.944725 
	C69.650009,41.629536 69.267807,38.561855 73.622391,39.118202 
	C72.611534,40.749344 71.216331,42.316196 69.504349,43.944725 
z"/>
<path fill="#F8F7FE" opacity="1.000000" stroke="none" 
	d="
M154.003784,45.547554 
	C155.366608,45.113602 156.743256,45.036438 158.531281,44.913231 
	C157.775574,47.466606 156.592285,49.989025 154.003784,45.547554 
z"/>
<path fill="#F8F7FE" opacity="1.000000" stroke="none" 
	d="
M205.047394,44.222149 
	C206.541443,44.263889 208.021591,44.670807 209.815369,45.158485 
	C209.353638,45.818928 208.578293,46.398617 207.401459,46.988785 
	C206.344498,46.195290 205.688995,45.391308 205.047394,44.222149 
z"/>
<path fill="#F8F7FE" opacity="1.000000" stroke="none" 
	d="
M92.008224,41.392769 
	C88.009850,41.580368 90.437935,38.530796 89.902809,36.414162 
	C90.658875,37.666271 91.331734,39.331558 92.008224,41.392769 
z"/>
<path fill="#F8F7FE" opacity="1.000000" stroke="none" 
	d="
M76.047882,39.548004 
	C77.073921,40.820702 78.155479,42.461372 79.331955,44.472694 
	C78.319061,43.200886 77.211235,41.558434 76.047882,39.548004 
z"/>
<path fill="#F8F7FE" opacity="1.000000" stroke="none" 
	d="
M148.038422,45.511162 
	C148.748611,45.144573 149.505341,45.100143 150.636261,45.123718 
	C150.680267,46.000664 150.350082,46.809605 150.019897,47.618538 
	C149.374939,47.023464 148.729965,46.428391 148.038422,45.511162 
z"/>
<path fill="#F8F7FE" opacity="1.000000" stroke="none" 
	d="
M66.492889,38.087250 
	C66.441208,39.581516 66.022537,41.166821 65.359085,43.011230 
	C65.451508,41.572987 65.788704,39.875637 66.492889,38.087250 
z"/>
<path fill="#8379F5" opacity="1.000000" stroke="none" 
	d="
M43.878334,29.733551 
	C43.311283,29.612955 42.672329,29.200651 41.972187,28.486233 
	C42.542809,28.603355 43.174618,29.022598 43.878334,29.733551 
z"/>
<path fill="#F8F7FE" opacity="1.000000" stroke="none" 
	d="
M98.958466,41.517342 
	C98.557701,41.832085 98.108788,41.872135 97.326286,41.849979 
	C97.314888,41.320026 97.637085,40.852283 97.959282,40.384544 
	C98.276291,40.670582 98.593300,40.956619 98.958466,41.517342 
z"/>
<path fill="#6652D8" opacity="1.000000" stroke="none" 
	d="
M116.585770,35.067387 
	C115.907875,35.406471 114.867798,35.696732 113.473389,35.974255 
	C114.153893,35.647202 115.188744,35.332882 116.585770,35.067387 
z"/>
<path fill="#F8F7FE" opacity="1.000000" stroke="none" 
	d="
M92.040695,45.470947 
	C92.441750,45.157520 92.890739,45.119953 93.673698,45.142494 
	C93.684952,45.672417 93.362244,46.142235 93.039528,46.612053 
	C92.722565,46.323635 92.405609,46.035225 92.040695,45.470947 
z"/>
<path fill="#F8F7FE" opacity="1.000000" stroke="none" 
	d="
M69.662079,28.230680 
	C69.799416,28.635290 69.693344,29.248934 69.358688,30.085178 
	C69.226288,29.685091 69.322472,29.062403 69.662079,28.230680 
z"/>
<path fill="#F8F7FE" opacity="1.000000" stroke="none" 
	d="
M67.605759,35.222389 
	C67.745392,35.400280 67.676704,35.767998 67.382385,36.318764 
	C67.236992,36.138611 67.317207,35.775417 67.605759,35.222389 
z"/>
<path fill="#8379F5" opacity="1.000000" stroke="none" 
	d="
M48.161221,33.794769 
	C47.965313,33.814751 47.968304,33.380959 48.011513,33.168472 
	C48.234146,33.123882 48.424335,33.282879 48.579540,33.470779 
	C48.599232,33.494614 48.435749,33.669750 48.161221,33.794769 
z"/>
<path fill="#F8F7FE" opacity="1.000000" stroke="none" 
	d="
M74.532761,45.550476 
	C74.476990,45.583820 74.588524,45.517128 74.532761,45.550476 
z"/>
<path fill="#F8F7FE" opacity="1.000000" stroke="none" 
	d="
M68.585114,32.226173 
	C68.723251,32.399868 68.658104,32.762894 68.373688,33.309128 
	C68.230225,33.133396 68.306023,32.774452 68.585114,32.226173 
z"/>
<path fill="#8379F5" opacity="1.000000" stroke="none" 
	d="
M46.947792,31.773005 
	C46.755524,31.978388 46.494022,31.885082 46.143944,31.522350 
	C46.339268,31.258055 46.613670,31.331852 46.947792,31.773005 
z"/>
<path fill="#8379F5" opacity="1.000000" stroke="none" 
	d="
M45.089401,30.662926 
	C44.895794,30.769405 44.572861,30.640766 44.117943,30.279984 
	C44.310665,30.174496 44.635372,30.301153 45.089401,30.662926 
z"/>
<path fill="#FFFEFF" opacity="1.000000" stroke="none" 
	d="
M155.006195,25.558193 
	C155.755676,25.145529 156.503006,25.104729 157.622559,25.112812 
	C159.645325,26.718103 161.295853,28.274508 163.762344,30.600348 
	C159.349121,30.153822 154.922562,32.222538 155.006195,25.558193 
z"/>
<path fill="#6E54CD" opacity="1.000000" stroke="none" 
	d="
M168.903900,23.700241 
	C168.580139,23.840208 168.350891,23.616022 168.193695,23.040920 
	C168.408661,23.009024 168.652863,23.224384 168.903900,23.700241 
z"/>
<path fill="#6E5EE2" opacity="1.000000" stroke="none" 
	d="
M193.378235,45.129715 
	C191.286621,45.144604 189.565369,45.099270 187.418274,45.120861 
	C186.318100,44.393696 185.643753,43.599606 185.419281,42.398098 
	C189.845688,41.788696 187.958862,38.932331 188.201813,36.572399 
	C188.219620,34.092712 188.161484,32.046368 188.103363,30.000021 
	C188.156860,29.553652 188.210358,29.107281 188.186188,28.330423 
	C188.160843,27.555727 188.213181,27.111517 188.155365,26.062696 
	C187.704346,25.368217 187.363449,25.278351 187.022568,25.188480 
	C186.364029,24.505487 185.705490,23.822495 185.046951,23.139505 
	C185.799973,22.751089 186.524063,22.119198 187.312103,22.025536 
	C188.894913,21.837406 190.512604,21.943005 192.919449,21.935661 
	C194.460083,22.002800 195.197174,22.061657 195.934265,22.120514 
	C195.934265,22.120514 196.030258,22.565584 196.009338,23.132996 
	C194.919098,24.159019 193.758453,24.486217 192.822495,25.136728 
	C192.410614,25.422995 192.455856,26.367016 192.293549,27.012405 
	C192.235428,27.457800 192.177307,27.903196 191.822433,28.786884 
	C191.706116,29.809235 191.886551,30.393290 192.066971,30.977348 
	C192.097794,33.354485 192.128616,35.731625 192.154083,38.918617 
	C193.100204,40.430618 194.051682,41.132763 195.003143,41.834908 
	C196.634460,43.708031 196.437164,44.871906 193.378235,45.129715 
z"/>
<path fill="#6653F1" opacity="1.000000" stroke="none" 
	d="
M214.473282,42.912724 
	C213.770554,42.538700 213.376144,41.990612 212.924744,41.092339 
	C212.975174,40.120461 213.082611,39.498764 213.368896,38.234081 
	C213.530426,36.059166 213.513107,34.527245 213.495789,32.995319 
	C213.598083,29.906984 213.700394,26.818647 213.876328,23.263098 
	C217.295074,22.593605 217.190430,24.877699 217.077957,27.962856 
	C217.032104,31.186296 217.001251,33.603523 216.970398,36.020752 
	C216.240799,38.260056 215.511200,40.499355 214.473282,42.912724 
z"/>
<path fill="#F8F7FE" opacity="1.000000" stroke="none" 
	d="
M192.669830,27.009827 
	C192.455856,26.367016 192.410614,25.422995 192.822495,25.136728 
	C193.758453,24.486217 194.919098,24.159019 196.090515,23.345682 
	C197.884766,22.995329 199.576935,22.999699 201.696426,23.007000 
	C202.170578,24.397121 202.217392,25.784311 201.795715,27.583977 
	C200.552277,27.996546 199.777313,27.996637 199.002335,27.996731 
	C197.016922,27.666903 195.031525,27.337076 192.669830,27.009827 
z"/>
<path fill="#F8F7FE" opacity="1.000000" stroke="none" 
	d="
M206.523254,31.619736 
	C206.235291,29.778925 206.426666,27.582289 205.992569,25.517136 
	C205.780472,24.508163 204.403595,23.744040 203.229370,22.670280 
	C204.349411,21.737024 205.794037,21.002575 207.238647,20.268127 
	C207.448700,21.741398 207.909882,23.231861 207.810471,24.683939 
	C207.658096,26.909191 207.119629,29.108011 206.523254,31.619736 
z"/>
<path fill="#F8F7FE" opacity="1.000000" stroke="none" 
	d="
M211.018936,41.210678 
	C206.174789,42.570393 206.378647,39.012836 206.232498,35.448734 
	C207.821594,37.003777 209.337494,38.936871 211.018936,41.210678 
z"/>
<path fill="#F8F7FE" opacity="1.000000" stroke="none" 
	d="
M213.187714,33.103901 
	C213.513107,34.527245 213.530426,36.059166 213.343552,37.919044 
	C213.052780,36.568825 212.966217,34.890656 213.187714,33.103901 
z"/>
<path fill="#F8F7FE" opacity="1.000000" stroke="none" 
	d="
M195.914246,21.784637 
	C195.197174,22.061657 194.460083,22.002800 193.358917,21.877110 
	C193.961304,21.689772 194.927780,21.569267 195.914246,21.784637 
z"/>
<path fill="#F8F7FE" opacity="1.000000" stroke="none" 
	d="
M187.155670,25.381804 
	C187.363449,25.278351 187.704346,25.368217 188.077484,25.734097 
	C187.790833,25.950516 187.517166,25.805521 187.155670,25.381804 
z"/>
<path fill="#FEFEFF" opacity="1.000000" stroke="none" 
	d="
M198.843399,28.360762 
	C199.777313,27.996637 200.552277,27.996546 201.715668,27.994144 
	C202.155075,30.697107 202.206055,33.402382 202.190460,36.554146 
	C195.540314,36.501652 198.327133,32.108376 198.843399,28.360762 
z"/>
<path fill="#F8F7FE" opacity="1.000000" stroke="none" 
	d="
M194.966492,41.525063 
	C194.051682,41.132763 193.100204,40.430618 192.222473,39.357948 
	C193.174072,39.730026 194.051941,40.472622 194.966492,41.525063 
z"/>
<path fill="#F8F7FE" opacity="1.000000" stroke="none" 
	d="
M192.284088,30.834984 
	C191.886551,30.393290 191.706116,29.809235 191.796875,29.123714 
	C192.212448,29.579039 192.356827,30.135830 192.284088,30.834984 
z"/>
<path fill="#F8F7FE" opacity="1.000000" stroke="none" 
	d="
M202.162018,38.744965 
	C202.363586,38.769485 202.568726,39.077484 202.764496,39.670998 
	C202.558624,39.647156 202.362106,39.337799 202.162018,38.744965 
z"/>
<path fill="#6D5FE1" opacity="1.000000" stroke="none" 
	d="
M225.008530,43.788010 
	C223.666443,43.779228 222.324371,43.770443 220.903381,43.384705 
	C220.955521,41.242466 221.086578,39.477177 221.340408,36.058159 
	C223.723831,37.918301 225.223312,39.088577 226.845154,40.884399 
	C226.314514,42.269302 225.661530,43.028656 225.008530,43.788010 
z"/>
<path fill="#6F65DE" opacity="1.000000" stroke="none" 
	d="
M225.361694,43.824966 
	C225.661530,43.028656 226.314514,42.269302 227.007355,41.196724 
	C228.457352,40.914177 229.867493,40.944859 231.618515,40.950470 
	C232.821518,41.325050 233.683655,41.724697 234.914215,42.232376 
	C233.437363,43.252766 231.592072,44.165123 229.368988,45.138641 
	C227.899078,44.753841 226.806961,44.307880 225.361694,43.824966 
z"/>
<path fill="#E6F4FF" opacity="1.000000" stroke="none" 
	d="
M217.304138,35.841095 
	C217.001251,33.603523 217.032104,31.186296 217.141006,28.376158 
	C220.497375,30.371441 219.348816,33.001102 217.304138,35.841095 
z"/>
<path fill="#E4DDFF" opacity="1.000000" stroke="none" 
	d="
M80.908264,35.820824 
	C78.848076,36.464794 76.803413,36.725834 74.365662,36.923317 
	C74.519768,34.865276 75.066971,32.870796 75.632401,30.809855 
	C79.613235,30.006804 80.249725,32.743782 80.908264,35.820824 
z"/>
<path fill="#E4DDFF" opacity="1.000000" stroke="none" 
	d="
M73.801132,29.070942 
	C73.730873,28.169924 73.980377,27.257078 74.229874,26.344231 
	C74.791664,26.999300 75.353462,27.654371 75.978661,28.642651 
	C75.401672,29.003614 74.761284,29.031366 73.801132,29.070942 
z"/>
<path fill="#E4DDFF" opacity="1.000000" stroke="none" 
	d="
M72.355133,33.761932 
	C72.266769,33.150742 72.418648,32.322998 72.787254,31.258621 
	C72.867783,31.863119 72.731575,32.704247 72.355133,33.761932 
z"/>
<path fill="#6F65DE" opacity="1.000000" stroke="none" 
	d="
M236.044846,36.239319 
	C236.006042,37.835197 235.945786,39.839905 235.581238,42.024521 
	C235.525757,40.352333 235.774567,38.500240 236.044846,36.239319 
z"/>
<path fill="#FEFEFF" opacity="1.000000" stroke="none" 
	d="
M187.696167,30.006836 
	C188.161484,32.046368 188.219620,34.092712 187.852921,36.611637 
	C186.618515,38.389526 185.808960,39.694839 184.999390,41.000153 
	C182.193878,38.295605 183.585831,31.616409 187.696167,30.006836 
z"/>
<path fill="#F8F7FE" opacity="1.000000" stroke="none" 
	d="
M185.006531,41.266502 
	C185.808960,39.694839 186.618515,38.389526 187.776978,37.044979 
	C187.958862,38.932331 189.845688,41.788696 185.455475,42.027840 
	C185.032440,41.887615 185.023071,41.710232 185.006531,41.266502 
z"/>
</svg>